<svg xmlns="http://www.w3.org/2000/svg" xmlns:xlink="http://www.w3.org/1999/xlink" width="5000" zoomAndPan="magnify" viewBox="0 0 3750 3749.999967" height="5000" preserveAspectRatio="xMidYMid meet" version="1.0"><defs><g/></defs><path fill="#1db954" d="M 2723.691406 3374.839844 L 1018.613281 3374.839844 C 1011.324219 3374.832031 1004.039062 3374.644531 996.757812 3374.277344 C 989.472656 3373.910156 982.207031 3373.367188 974.949219 3372.644531 C 967.695312 3371.921875 960.460938 3371.023438 953.25 3369.945312 C 946.039062 3368.871094 938.859375 3367.617188 931.710938 3366.191406 C 924.5625 3364.761719 917.453125 3363.160156 910.378906 3361.382812 C 903.308594 3359.605469 896.285156 3357.65625 889.3125 3355.535156 C 882.335938 3353.414062 875.417969 3351.121094 868.554688 3348.660156 C 861.691406 3346.203125 854.890625 3343.574219 848.15625 3340.78125 C 841.421875 3337.988281 834.761719 3335.03125 828.171875 3331.910156 C 821.582031 3328.792969 815.074219 3325.511719 808.644531 3322.074219 C 802.21875 3318.632812 795.878906 3315.039062 789.625 3311.289062 C 783.375 3307.539062 777.214844 3303.640625 771.15625 3299.589844 C 765.09375 3295.539062 759.136719 3291.339844 753.28125 3286.996094 C 747.425781 3282.652344 741.679688 3278.167969 736.046875 3273.542969 C 730.410156 3268.917969 724.890625 3264.160156 719.492188 3259.261719 C 714.089844 3254.367188 708.808594 3249.34375 703.65625 3244.1875 C 698.5 3239.035156 693.472656 3233.757812 688.578125 3228.355469 C 683.679688 3222.957031 678.917969 3217.441406 674.292969 3211.804688 C 669.664062 3206.171875 665.179688 3200.429688 660.835938 3194.574219 C 656.492188 3188.722656 652.292969 3182.765625 648.242188 3176.707031 C 644.1875 3170.644531 640.285156 3164.492188 636.535156 3158.242188 C 632.785156 3151.992188 629.191406 3145.652344 625.75 3139.222656 C 622.308594 3132.796875 619.03125 3126.292969 615.910156 3119.703125 C 612.789062 3113.117188 609.832031 3106.457031 607.035156 3099.722656 C 604.242188 3092.992188 601.617188 3086.195312 599.15625 3079.332031 C 596.695312 3072.472656 594.402344 3065.554688 592.28125 3058.582031 C 590.160156 3051.609375 588.210938 3044.585938 586.429688 3037.515625 C 584.652344 3030.449219 583.050781 3023.339844 581.621094 3016.191406 C 580.191406 3009.042969 578.941406 3001.867188 577.863281 2994.65625 C 576.785156 2987.449219 575.886719 2980.21875 575.164062 2972.964844 C 574.441406 2965.710938 573.898438 2958.445312 573.53125 2951.164062 C 573.164062 2943.882812 572.976562 2936.601562 572.96875 2929.3125 L 572.96875 1734.367188 C 572.953125 1727.347656 573.109375 1720.335938 573.433594 1713.328125 C 573.757812 1706.320312 574.25 1699.324219 574.910156 1692.339844 C 575.574219 1685.351562 576.402344 1678.390625 577.402344 1671.445312 C 578.398438 1664.5 579.566406 1657.582031 580.898438 1650.695312 C 582.230469 1643.804688 583.730469 1636.953125 585.394531 1630.136719 C 587.058594 1623.320312 588.886719 1616.550781 590.878906 1609.824219 C 592.867188 1603.09375 595.019531 1596.417969 597.335938 1589.796875 C 599.648438 1583.171875 602.121094 1576.609375 604.753906 1570.101562 C 607.382812 1563.597656 610.171875 1557.164062 613.113281 1550.792969 C 616.054688 1544.421875 619.148438 1538.128906 622.394531 1531.90625 C 625.644531 1525.6875 629.039062 1519.550781 632.582031 1513.492188 C 636.125 1507.4375 639.8125 1501.46875 643.644531 1495.59375 C 647.476562 1489.714844 651.445312 1483.933594 655.558594 1478.246094 C 659.667969 1472.558594 663.914062 1466.976562 668.296875 1461.496094 C 672.675781 1456.011719 677.1875 1450.640625 681.828125 1445.378906 C 686.46875 1440.113281 691.234375 1434.964844 696.121094 1429.933594 L 1608.261719 486.886719 C 1612.503906 482.476562 1616.851562 478.179688 1621.308594 473.988281 C 1625.765625 469.800781 1630.324219 465.726562 1634.984375 461.765625 C 1639.648438 457.804688 1644.40625 453.964844 1649.261719 450.242188 C 1654.117188 446.523438 1659.0625 442.925781 1664.097656 439.453125 C 1669.136719 435.980469 1674.253906 432.636719 1679.460938 429.425781 C 1684.664062 426.210938 1689.945312 423.128906 1695.304688 420.179688 C 1700.667969 417.230469 1706.097656 414.417969 1711.597656 411.742188 C 1717.097656 409.066406 1722.664062 406.53125 1728.292969 404.136719 C 1733.921875 401.742188 1739.605469 399.488281 1745.347656 397.378906 C 1751.089844 395.269531 1756.882812 393.304688 1762.722656 391.488281 C 1768.566406 389.667969 1774.449219 388 1780.375 386.476562 C 1786.296875 384.953125 1792.257812 383.582031 1798.253906 382.359375 C 1804.246094 381.136719 1810.265625 380.066406 1816.316406 379.148438 C 1822.363281 378.226562 1828.429688 377.460938 1834.515625 376.847656 C 1840.605469 376.230469 1846.703125 375.769531 1852.8125 375.460938 C 1858.921875 375.15625 1865.035156 375 1871.152344 375 C 1877.269531 375 1883.386719 375.15625 1889.496094 375.460938 C 1895.605469 375.769531 1901.703125 376.230469 1907.789062 376.847656 C 1913.875 377.460938 1919.945312 378.226562 1925.992188 379.148438 C 1932.039062 380.066406 1938.0625 381.136719 1944.054688 382.359375 C 1950.050781 383.582031 1956.007812 384.953125 1961.933594 386.476562 C 1967.859375 388 1973.742188 389.667969 1979.582031 391.488281 C 1985.425781 393.304688 1991.214844 395.269531 1996.957031 397.378906 C 2002.699219 399.488281 2008.386719 401.742188 2014.015625 404.136719 C 2019.644531 406.53125 2025.207031 409.066406 2030.710938 411.742188 C 2036.210938 414.417969 2041.640625 417.230469 2047 420.179688 C 2052.359375 423.128906 2057.640625 426.210938 2062.847656 429.425781 C 2068.050781 432.636719 2073.171875 435.980469 2078.207031 439.453125 C 2083.246094 442.925781 2088.191406 446.523438 2093.046875 450.242188 C 2097.902344 453.964844 2102.660156 457.804688 2107.320312 461.765625 C 2111.984375 465.726562 2116.542969 469.800781 2121 473.988281 C 2125.457031 478.179688 2129.804688 482.476562 2134.046875 486.886719 L 3131.207031 1517.800781 C 3132.761719 1519.390625 3134.273438 1521.023438 3135.75 1522.691406 C 3137.222656 1524.355469 3138.65625 1526.058594 3140.046875 1527.796875 C 3141.4375 1529.535156 3142.785156 1531.304688 3144.089844 1533.109375 C 3145.394531 1534.914062 3146.652344 1536.75 3147.863281 1538.617188 C 3149.078125 1540.484375 3150.246094 1542.378906 3151.363281 1544.300781 C 3152.484375 1546.222656 3153.554688 1548.175781 3154.582031 1550.152344 C 3155.605469 1552.128906 3156.578125 1554.128906 3157.503906 1556.152344 C 3158.429688 1558.175781 3159.304688 1560.222656 3160.128906 1562.289062 C 3160.953125 1564.355469 3161.726562 1566.445312 3162.449219 1568.550781 C 3163.167969 1570.65625 3163.839844 1572.777344 3164.457031 1574.914062 C 3165.074219 1577.054688 3165.636719 1579.207031 3166.148438 1581.371094 C 3166.660156 1583.539062 3167.117188 1585.714844 3167.523438 1587.902344 C 3167.925781 1590.09375 3168.277344 1592.289062 3168.570312 1594.496094 C 3168.867188 1596.703125 3169.109375 1598.914062 3169.296875 1601.132812 C 3169.484375 1603.347656 3169.613281 1605.570312 3169.691406 1607.792969 C 3169.769531 1610.019531 3169.792969 1612.242188 3169.757812 1614.46875 C 3169.726562 1616.695312 3169.640625 1618.917969 3169.5 1621.140625 C 3169.355469 1623.359375 3169.160156 1625.578125 3168.910156 1627.789062 C 3168.660156 1630 3168.355469 1632.203125 3167.996094 1634.398438 C 3167.636719 1636.597656 3167.222656 1638.78125 3166.753906 1640.960938 C 3166.289062 1643.136719 3165.765625 1645.296875 3165.195312 1647.449219 C 3164.621094 1649.597656 3163.992188 1651.734375 3163.316406 1653.855469 C 3162.636719 1655.972656 3161.90625 1658.074219 3161.125 1660.160156 C 3160.339844 1662.242188 3159.507812 1664.304688 3158.625 1666.347656 C 3157.742188 1668.390625 3156.808594 1670.410156 3155.824219 1672.410156 C 3154.839844 1674.40625 3153.808594 1676.375 3152.726562 1678.324219 C 3151.648438 1680.269531 3150.519531 1682.1875 3149.34375 1684.078125 C 3148.167969 1685.96875 3146.949219 1687.828125 3145.679688 1689.65625 C 3144.414062 1691.488281 3143.105469 1693.285156 3141.75 1695.050781 C 3140.394531 1696.816406 3138.996094 1698.550781 3137.554688 1700.246094 C 3136.113281 1701.941406 3134.632812 1703.605469 3133.109375 1705.226562 C 3131.589844 1706.851562 3130.027344 1708.4375 3128.425781 1709.984375 C 3126.828125 1711.53125 3125.1875 1713.039062 3123.515625 1714.503906 C 3121.839844 1715.972656 3120.128906 1717.394531 3118.386719 1718.777344 C 3116.640625 1720.160156 3114.863281 1721.5 3113.050781 1722.792969 C 3111.242188 1724.089844 3109.398438 1725.339844 3107.527344 1726.542969 C 3105.65625 1727.746094 3103.753906 1728.90625 3101.824219 1730.015625 C 3099.894531 1731.125 3097.941406 1732.1875 3095.960938 1733.203125 C 3093.976562 1734.21875 3091.972656 1735.183594 3089.941406 1736.097656 C 3087.914062 1737.015625 3085.863281 1737.878906 3083.792969 1738.695312 C 3081.71875 1739.507812 3079.628906 1740.273438 3077.519531 1740.984375 C 3075.410156 1741.695312 3073.285156 1742.355469 3071.144531 1742.960938 C 3069 1743.570312 3066.847656 1744.125 3064.675781 1744.625 C 3062.507812 1745.125 3060.328125 1745.574219 3058.136719 1745.964844 C 3055.945312 1746.359375 3053.746094 1746.699219 3051.539062 1746.984375 C 3049.332031 1747.269531 3047.117188 1747.5 3044.898438 1747.679688 C 3042.679688 1747.855469 3040.457031 1747.976562 3038.230469 1748.042969 C 3036.003906 1748.109375 3033.78125 1748.121094 3031.554688 1748.082031 C 3029.328125 1748.039062 3027.105469 1747.941406 3024.882812 1747.789062 C 3022.664062 1747.636719 3020.449219 1747.429688 3018.234375 1747.167969 C 3016.027344 1746.910156 3013.824219 1746.59375 3011.625 1746.222656 C 3009.429688 1745.855469 3007.246094 1745.429688 3005.070312 1744.953125 C 3002.898438 1744.476562 3000.734375 1743.945312 2998.585938 1743.363281 C 2996.4375 1742.78125 2994.304688 1742.144531 2992.1875 1741.457031 C 2990.070312 1740.765625 2987.972656 1740.027344 2985.890625 1739.234375 C 2983.8125 1738.441406 2981.753906 1737.601562 2979.714844 1736.707031 C 2977.675781 1735.816406 2975.660156 1734.871094 2973.664062 1733.878906 C 2971.671875 1732.886719 2969.707031 1731.847656 2967.765625 1730.757812 C 2965.824219 1729.667969 2963.910156 1728.53125 2962.023438 1727.347656 C 2960.140625 1726.164062 2958.285156 1724.933594 2956.457031 1723.660156 C 2954.632812 1722.386719 2952.839844 1721.066406 2951.082031 1719.703125 C 2949.320312 1718.339844 2947.597656 1716.933594 2945.90625 1715.488281 C 2944.214844 1714.039062 2942.558594 1712.550781 2940.941406 1711.019531 C 2939.324219 1709.492188 2937.746094 1707.921875 2936.207031 1706.316406 L 1938.96875 675.789062 C 1937.886719 674.636719 1936.773438 673.507812 1935.632812 672.410156 C 1934.492188 671.3125 1933.320312 670.246094 1932.125 669.207031 C 1930.929688 668.171875 1929.707031 667.164062 1928.460938 666.1875 C 1927.214844 665.214844 1925.941406 664.269531 1924.648438 663.359375 C 1923.351562 662.449219 1922.035156 661.570312 1920.695312 660.730469 C 1919.355469 659.886719 1917.992188 659.078125 1916.613281 658.304688 C 1915.230469 657.527344 1913.828125 656.792969 1912.410156 656.089844 C 1910.992188 655.386719 1909.554688 654.722656 1908.101562 654.09375 C 1906.648438 653.464844 1905.179688 652.871094 1903.695312 652.316406 C 1902.214844 651.761719 1900.71875 651.246094 1899.207031 650.769531 C 1897.699219 650.292969 1896.175781 649.855469 1894.644531 649.453125 C 1893.113281 649.054688 1891.570312 648.695312 1890.019531 648.371094 C 1888.46875 648.050781 1886.910156 647.769531 1885.347656 647.527344 C 1883.78125 647.285156 1882.210938 647.085938 1880.636719 646.925781 C 1879.0625 646.761719 1877.480469 646.640625 1875.902344 646.5625 C 1874.320312 646.480469 1872.738281 646.441406 1871.152344 646.441406 C 1869.570312 646.441406 1867.988281 646.480469 1866.40625 646.5625 C 1864.824219 646.640625 1863.246094 646.761719 1861.671875 646.925781 C 1860.09375 647.085938 1858.523438 647.285156 1856.960938 647.527344 C 1855.394531 647.769531 1853.835938 648.050781 1852.285156 648.371094 C 1850.734375 648.695312 1849.195312 649.054688 1847.664062 649.453125 C 1846.128906 649.855469 1844.609375 650.292969 1843.097656 650.769531 C 1841.589844 651.246094 1840.09375 651.761719 1838.609375 652.316406 C 1837.125 652.871094 1835.65625 653.464844 1834.203125 654.09375 C 1832.75 654.722656 1831.316406 655.386719 1829.894531 656.089844 C 1828.476562 656.792969 1827.078125 657.527344 1825.695312 658.304688 C 1824.3125 659.078125 1822.953125 659.886719 1821.613281 660.730469 C 1820.273438 661.570312 1818.953125 662.449219 1817.660156 663.359375 C 1816.363281 664.269531 1815.09375 665.214844 1813.84375 666.1875 C 1812.597656 667.164062 1811.375 668.171875 1810.179688 669.207031 C 1808.984375 670.246094 1807.816406 671.3125 1806.675781 672.410156 C 1805.535156 673.507812 1804.421875 674.636719 1803.335938 675.789062 L 891.121094 1618.449219 C 887.40625 1622.304688 883.882812 1626.328125 880.558594 1630.519531 C 877.230469 1634.714844 874.113281 1639.058594 871.207031 1643.550781 C 868.300781 1648.046875 865.621094 1652.671875 863.160156 1657.425781 C 860.703125 1662.179688 858.476562 1667.042969 856.488281 1672.011719 C 854.5 1676.980469 852.757812 1682.035156 851.257812 1687.171875 C 849.757812 1692.3125 848.511719 1697.507812 847.515625 1702.769531 C 846.519531 1708.027344 845.78125 1713.320312 845.296875 1718.652344 C 844.8125 1723.980469 844.585938 1729.324219 844.621094 1734.675781 L 844.621094 2929.3125 C 844.625 2932.164062 844.695312 2935.011719 844.839844 2937.863281 C 844.984375 2940.710938 845.195312 2943.554688 845.480469 2946.390625 C 845.761719 2949.230469 846.117188 2952.058594 846.535156 2954.878906 C 846.957031 2957.699219 847.449219 2960.507812 848.007812 2963.304688 C 848.566406 2966.101562 849.195312 2968.886719 849.890625 2971.652344 C 850.585938 2974.417969 851.351562 2977.164062 852.179688 2979.894531 C 853.011719 2982.621094 853.90625 2985.328125 854.871094 2988.011719 C 855.832031 2990.695312 856.863281 2993.355469 857.957031 2995.992188 C 859.050781 2998.625 860.207031 3001.230469 861.425781 3003.808594 C 862.648438 3006.386719 863.933594 3008.933594 865.277344 3011.449219 C 866.625 3013.960938 868.03125 3016.441406 869.5 3018.886719 C 870.96875 3021.332031 872.492188 3023.742188 874.078125 3026.113281 C 875.664062 3028.484375 877.308594 3030.8125 879.007812 3033.105469 C 880.707031 3035.394531 882.464844 3037.644531 884.273438 3039.847656 C 886.082031 3042.050781 887.945312 3044.210938 889.863281 3046.324219 C 891.777344 3048.4375 893.746094 3050.5 895.761719 3052.519531 C 897.78125 3054.535156 899.84375 3056.5 901.960938 3058.417969 C 904.074219 3060.332031 906.230469 3062.195312 908.4375 3064.003906 C 910.640625 3065.816406 912.890625 3067.570312 915.179688 3069.269531 C 917.472656 3070.96875 919.804688 3072.609375 922.175781 3074.195312 C 924.546875 3075.78125 926.957031 3077.308594 929.402344 3078.773438 C 931.847656 3080.242188 934.328125 3081.648438 936.84375 3082.996094 C 939.359375 3084.339844 941.90625 3085.625 944.484375 3086.84375 C 947.0625 3088.066406 949.667969 3089.222656 952.304688 3090.316406 C 954.941406 3091.410156 957.601562 3092.4375 960.285156 3093.398438 C 962.972656 3094.363281 965.679688 3095.257812 968.40625 3096.089844 C 971.136719 3096.917969 973.886719 3097.683594 976.652344 3098.378906 C 979.417969 3099.074219 982.199219 3099.703125 984.996094 3100.261719 C 987.796875 3100.820312 990.605469 3101.308594 993.425781 3101.730469 C 996.25 3102.152344 999.078125 3102.503906 1001.917969 3102.789062 C 1004.753906 3103.070312 1007.601562 3103.285156 1010.449219 3103.425781 C 1013.296875 3103.570312 1016.148438 3103.644531 1019.003906 3103.648438 L 2724.078125 3103.648438 C 2726.300781 3103.648438 2728.519531 3103.703125 2730.734375 3103.8125 C 2732.953125 3103.921875 2735.164062 3104.082031 2737.375 3104.300781 C 2739.582031 3104.519531 2741.785156 3104.789062 2743.980469 3105.117188 C 2746.175781 3105.441406 2748.363281 3105.820312 2750.539062 3106.253906 C 2752.714844 3106.6875 2754.882812 3107.171875 2757.035156 3107.710938 C 2759.1875 3108.25 2761.328125 3108.84375 2763.449219 3109.488281 C 2765.574219 3110.132812 2767.683594 3110.828125 2769.773438 3111.574219 C 2771.863281 3112.320312 2773.933594 3113.121094 2775.984375 3113.96875 C 2778.035156 3114.820312 2780.0625 3115.71875 2782.070312 3116.667969 C 2784.074219 3117.617188 2786.058594 3118.613281 2788.015625 3119.660156 C 2789.972656 3120.707031 2791.902344 3121.796875 2793.808594 3122.941406 C 2795.710938 3124.082031 2797.585938 3125.265625 2799.433594 3126.5 C 2801.277344 3127.734375 2803.09375 3129.011719 2804.875 3130.332031 C 2806.65625 3131.65625 2808.40625 3133.019531 2810.125 3134.425781 C 2811.839844 3135.835938 2813.519531 3137.285156 2815.164062 3138.773438 C 2816.808594 3140.265625 2818.414062 3141.792969 2819.984375 3143.363281 C 2821.554688 3144.933594 2823.085938 3146.539062 2824.574219 3148.183594 C 2826.066406 3149.828125 2827.515625 3151.507812 2828.925781 3153.222656 C 2830.332031 3154.9375 2831.699219 3156.6875 2833.019531 3158.46875 C 2834.339844 3160.253906 2835.621094 3162.066406 2836.851562 3163.910156 C 2838.085938 3165.757812 2839.273438 3167.628906 2840.414062 3169.535156 C 2841.554688 3171.4375 2842.648438 3173.367188 2843.695312 3175.324219 C 2844.742188 3177.28125 2845.738281 3179.261719 2846.6875 3181.269531 C 2847.636719 3183.273438 2848.539062 3185.304688 2849.386719 3187.355469 C 2850.234375 3189.402344 2851.035156 3191.472656 2851.78125 3193.5625 C 2852.53125 3195.652344 2853.226562 3197.757812 2853.871094 3199.882812 C 2854.515625 3202.007812 2855.105469 3204.144531 2855.644531 3206.296875 C 2856.183594 3208.449219 2856.671875 3210.613281 2857.105469 3212.789062 C 2857.539062 3214.96875 2857.917969 3217.152344 2858.242188 3219.347656 C 2858.570312 3221.542969 2858.839844 3223.746094 2859.058594 3225.953125 C 2859.277344 3228.160156 2859.4375 3230.375 2859.546875 3232.589844 C 2859.65625 3234.808594 2859.710938 3237.023438 2859.710938 3239.242188 C 2859.710938 3241.464844 2859.65625 3243.679688 2859.546875 3245.898438 C 2859.4375 3248.113281 2859.277344 3250.328125 2859.058594 3252.535156 C 2858.839844 3254.742188 2858.570312 3256.945312 2858.242188 3259.140625 C 2857.917969 3261.335938 2857.539062 3263.519531 2857.105469 3265.699219 C 2856.671875 3267.875 2856.183594 3270.039062 2855.644531 3272.191406 C 2855.105469 3274.34375 2854.515625 3276.480469 2853.871094 3278.605469 C 2853.226562 3280.730469 2852.53125 3282.835938 2851.78125 3284.925781 C 2851.035156 3287.011719 2850.234375 3289.082031 2849.386719 3291.132812 C 2848.535156 3293.183594 2847.636719 3295.210938 2846.6875 3297.21875 C 2845.738281 3299.222656 2844.742188 3301.207031 2843.695312 3303.164062 C 2842.648438 3305.121094 2841.554688 3307.050781 2840.414062 3308.953125 C 2839.273438 3310.855469 2838.085938 3312.730469 2836.851562 3314.578125 C 2835.621094 3316.421875 2834.339844 3318.234375 2833.019531 3320.019531 C 2831.699219 3321.800781 2830.332031 3323.550781 2828.925781 3325.265625 C 2827.515625 3326.980469 2826.066406 3328.660156 2824.574219 3330.304688 C 2823.085938 3331.949219 2821.554688 3333.554688 2819.984375 3335.125 C 2818.414062 3336.695312 2816.808594 3338.222656 2815.164062 3339.714844 C 2813.519531 3341.203125 2811.839844 3342.652344 2810.121094 3344.0625 C 2808.40625 3345.46875 2806.65625 3346.832031 2804.875 3348.15625 C 2803.09375 3349.476562 2801.277344 3350.753906 2799.433594 3351.988281 C 2797.585938 3353.21875 2795.710938 3354.40625 2793.808594 3355.546875 C 2791.902344 3356.6875 2789.972656 3357.78125 2788.015625 3358.828125 C 2786.058594 3359.875 2784.074219 3360.871094 2782.070312 3361.820312 C 2780.0625 3362.769531 2778.035156 3363.667969 2775.984375 3364.519531 C 2773.933594 3365.367188 2771.863281 3366.164062 2769.773438 3366.914062 C 2767.683594 3367.660156 2765.574219 3368.355469 2763.449219 3369 C 2761.328125 3369.644531 2759.1875 3370.238281 2757.035156 3370.777344 C 2754.882812 3371.316406 2752.714844 3371.800781 2750.539062 3372.234375 C 2748.363281 3372.667969 2746.175781 3373.046875 2743.980469 3373.371094 C 2741.785156 3373.699219 2739.582031 3373.96875 2737.375 3374.1875 C 2735.164062 3374.402344 2732.953125 3374.566406 2730.734375 3374.675781 C 2728.515625 3374.785156 2726.300781 3374.839844 2724.078125 3374.839844 Z M 2723.691406 3374.839844 " fill-opacity="1" fill-rule="nonzero"/><g fill="#1db954" fill-opacity="1"><g transform="translate(986.338335, 1934.810109)"><g><path d="M 206.339844 -291.792969 L 206.339844 -179.246094 L 96.292969 -179.246094 L 96.292969 -291.792969 L 33.347656 -291.792969 L 33.347656 0 L 96.292969 0 L 96.292969 -120.46875 L 206.339844 -120.46875 L 206.339844 0 L 269.285156 0 L 269.285156 -291.792969 Z M 206.339844 -291.792969 "/></g></g></g><g fill="#1db954" fill-opacity="1"><g transform="translate(1289.38696, 1934.810109)"><g><path d="M 135.894531 6.667969 C 205.507812 6.667969 257.613281 -44.601562 257.613281 -112.550781 C 257.613281 -180.496094 205.507812 -231.351562 135.894531 -231.351562 C 66.277344 -231.351562 14.171875 -180.496094 14.171875 -112.550781 C 14.171875 -44.601562 66.277344 6.667969 135.894531 6.667969 Z M 135.894531 -50.855469 C 100.878906 -50.855469 75.867188 -75.867188 75.867188 -112.550781 C 75.867188 -148.816406 100.878906 -174.242188 135.894531 -174.242188 C 170.910156 -174.242188 195.917969 -148.816406 195.917969 -112.550781 C 195.917969 -75.867188 170.910156 -50.855469 135.894531 -50.855469 Z M 135.894531 -50.855469 "/></g></g></g><g fill="#1db954" fill-opacity="1"><g transform="translate(1561.588844, 1934.810109)"><g><path d="M 285.125 -230.101562 C 256.363281 -230.101562 230.933594 -215.929688 215.511719 -194.25 C 202.171875 -216.761719 178.828125 -230.101562 150.066406 -230.101562 C 123.386719 -230.101562 98.792969 -217.179688 82.953125 -197.167969 L 71.699219 -225.097656 L 29.179688 -225.097656 L 29.179688 0 L 90.039062 0 L 90.039062 -121.71875 C 90.039062 -156.734375 106.296875 -176.742188 133.808594 -176.742188 C 155.484375 -176.742188 167.15625 -160.902344 167.15625 -130.890625 L 167.15625 0 L 226.347656 0 L 226.347656 -121.71875 C 226.347656 -156.734375 242.605469 -176.742188 269.703125 -176.742188 C 291.792969 -176.742188 303.464844 -160.902344 303.464844 -130.890625 L 303.464844 0 L 364.328125 0 L 364.328125 -140.894531 C 364.328125 -193.835938 331.8125 -230.101562 285.125 -230.101562 Z M 285.125 -230.101562 "/></g></g></g><g fill="#1db954" fill-opacity="1"><g transform="translate(1952.592482, 1934.810109)"><g><path d="M 247.609375 -112.964844 C 247.609375 -177.996094 200.085938 -231.351562 130.890625 -231.351562 C 64.195312 -231.351562 14.171875 -180.078125 14.171875 -112.550781 C 14.171875 -45.019531 64.613281 6.667969 130.890625 6.667969 C 183.414062 6.667969 226.347656 -24.59375 242.605469 -73.78125 L 178.828125 -73.78125 C 169.65625 -57.523438 152.148438 -47.519531 130.890625 -47.519531 C 101.292969 -47.519531 81.285156 -64.613281 75.867188 -95.457031 L 246.359375 -95.457031 C 247.191406 -101.292969 247.609375 -107.128906 247.609375 -112.964844 Z M 130.890625 -179.246094 C 158.402344 -179.246094 177.996094 -164.238281 186.75 -136.726562 L 77.535156 -136.726562 C 84.621094 -163.40625 103.796875 -179.246094 130.890625 -179.246094 Z M 130.890625 -179.246094 "/></g></g></g><g fill="#ffffff" fill-opacity="1"><g transform="translate(986.338335, 2350.575603)"><g><path d="M 208.839844 -153.816406 C 229.265625 -167.992188 241.773438 -191.332031 241.773438 -216.34375 C 241.773438 -259.28125 204.257812 -291.378906 153.816406 -291.378906 L 33.347656 -291.378906 L 33.347656 0.417969 L 157.152344 0.417969 C 208.007812 0.417969 249.277344 -37.097656 249.277344 -83.785156 C 249.277344 -115.050781 234.269531 -140.0625 208.839844 -153.816406 Z M 180.496094 -206.757812 C 180.496094 -188.414062 167.574219 -175.492188 147.980469 -175.492188 L 95.042969 -175.492188 L 95.042969 -237.605469 L 147.980469 -237.605469 C 167.574219 -237.605469 180.496094 -225.097656 180.496094 -206.757812 Z M 151.316406 -57.523438 L 95.042969 -57.523438 L 95.042969 -122.96875 L 151.316406 -122.96875 C 172.160156 -122.96875 185.914062 -109.214844 185.914062 -90.457031 C 185.914062 -71.28125 172.160156 -57.523438 151.316406 -57.523438 Z M 151.316406 -57.523438 "/></g></g></g><g fill="#ffffff" fill-opacity="1"><g transform="translate(1253.954887, 2350.575603)"><g><path d="M 131.722656 6.667969 C 195.503906 6.667969 237.605469 -34.183594 237.605469 -95.042969 L 237.605469 -225.097656 L 176.742188 -225.097656 L 176.742188 -101.710938 C 176.742188 -70.03125 160.070312 -50.855469 131.722656 -50.855469 C 103.796875 -50.855469 86.703125 -69.613281 86.703125 -101.710938 L 86.703125 -225.097656 L 25.84375 -225.097656 L 25.84375 -95.042969 C 25.84375 -34.183594 68.363281 6.667969 131.722656 6.667969 Z M 131.722656 6.667969 "/></g></g></g><g fill="#ffffff" fill-opacity="1"><g transform="translate(1517.81981, 2350.575603)"><g><path d="M 29.179688 -255.113281 L 89.621094 -255.113281 L 89.621094 -311.386719 L 29.179688 -311.386719 Z M 29.179688 0 L 90.039062 0 L 90.039062 -225.097656 L 29.179688 -225.097656 Z M 29.179688 0 "/></g></g></g><g fill="#ffffff" fill-opacity="1"><g transform="translate(1637.038375, 2350.575603)"><g><path d="M 29.179688 0 L 90.039062 0 L 90.039062 -305.96875 L 29.179688 -305.96875 Z M 29.179688 0 "/></g></g></g><g fill="#ffffff" fill-opacity="1"><g transform="translate(1756.25694, 2350.575603)"><g><path d="M 194.25 -305.96875 L 194.25 -212.59375 C 176.742188 -224.683594 155.902344 -231.351562 132.558594 -231.351562 C 64.195312 -231.351562 14.171875 -180.496094 14.171875 -112.132812 C 14.171875 -44.1875 64.195312 7.085938 132.558594 7.085938 C 160.070312 7.085938 184.246094 -2.5 203.003906 -18.339844 L 210.09375 0.417969 L 255.113281 0.417969 L 255.113281 -305.96875 Z M 137.558594 -50.4375 C 102.128906 -50.4375 76.285156 -77.117188 76.285156 -112.132812 C 76.285156 -147.566406 102.128906 -173.828125 137.558594 -173.828125 C 172.992188 -173.828125 198.835938 -147.566406 198.835938 -112.132812 C 198.835938 -77.117188 172.992188 -50.4375 137.558594 -50.4375 Z M 137.558594 -50.4375 "/></g></g></g><g fill="#ffffff" fill-opacity="1"><g transform="translate(2040.964193, 2350.575603)"><g><path d="M 29.179688 -255.113281 L 89.621094 -255.113281 L 89.621094 -311.386719 L 29.179688 -311.386719 Z M 29.179688 0 L 90.039062 0 L 90.039062 -225.097656 L 29.179688 -225.097656 Z M 29.179688 0 "/></g></g></g><g fill="#ffffff" fill-opacity="1"><g transform="translate(2160.182757, 2350.575603)"><g><path d="M 157.152344 -230.101562 C 126.722656 -230.101562 99.628906 -217.179688 82.535156 -197.167969 L 70.863281 -225.097656 L 29.179688 -225.097656 L 29.179688 0 L 90.039062 0 L 90.039062 -117.96875 C 90.039062 -154.234375 109.214844 -176.742188 140.476562 -176.742188 C 166.738281 -176.742188 179.660156 -160.488281 179.660156 -126.304688 L 179.660156 0 L 240.523438 0 L 240.523438 -136.308594 C 240.523438 -193.417969 208.425781 -230.101562 157.152344 -230.101562 Z M 157.152344 -230.101562 "/></g></g></g><g fill="#ffffff" fill-opacity="1"><g transform="translate(2427.382417, 2350.575603)"><g><path d="M 210.925781 -225.097656 L 200.921875 -202.589844 C 181.328125 -220.511719 155.484375 -231.351562 126.304688 -231.351562 C 63.359375 -231.351562 14.171875 -181.328125 14.171875 -118.386719 C 14.171875 -55.023438 63.359375 -5.417969 126.304688 -5.417969 C 150.484375 -5.417969 172.574219 -12.921875 190.5 -25.429688 L 190.5 -17.089844 C 190.5 15.839844 165.074219 35.847656 134.226562 35.847656 C 111.714844 35.847656 87.957031 25.429688 80.867188 5.003906 L 20.425781 5.003906 C 30.847656 56.273438 74.199219 87.539062 135.058594 87.539062 C 206.339844 87.539062 250.109375 44.601562 250.109375 -25.84375 L 250.109375 -224.683594 Z M 133.390625 -60.027344 C 100.042969 -60.027344 75.867188 -84.621094 75.867188 -117.96875 C 75.867188 -151.734375 100.042969 -176.328125 133.390625 -176.328125 C 166.738281 -176.328125 190.917969 -151.734375 190.917969 -117.96875 C 190.917969 -84.621094 166.738281 -60.027344 133.390625 -60.027344 Z M 133.390625 -60.027344 "/></g></g></g><g fill="#ffffff" fill-opacity="1"><g transform="translate(986.338335, 2766.341096)"><g><path d="M 206.339844 -291.792969 L 206.339844 -179.246094 L 96.292969 -179.246094 L 96.292969 -291.792969 L 33.347656 -291.792969 L 33.347656 0 L 96.292969 0 L 96.292969 -120.46875 L 206.339844 -120.46875 L 206.339844 0 L 269.285156 0 L 269.285156 -291.792969 Z M 206.339844 -291.792969 "/></g></g></g><g fill="#ffffff" fill-opacity="1"><g transform="translate(1289.38696, 2766.341096)"><g><path d="M 131.722656 6.667969 C 195.503906 6.667969 237.605469 -34.183594 237.605469 -95.042969 L 237.605469 -225.097656 L 176.742188 -225.097656 L 176.742188 -101.710938 C 176.742188 -70.03125 160.070312 -50.855469 131.722656 -50.855469 C 103.796875 -50.855469 86.703125 -69.613281 86.703125 -101.710938 L 86.703125 -225.097656 L 25.84375 -225.097656 L 25.84375 -95.042969 C 25.84375 -34.183594 68.363281 6.667969 131.722656 6.667969 Z M 131.722656 6.667969 "/></g></g></g><g fill="#ffffff" fill-opacity="1"><g transform="translate(1553.251858, 2766.341096)"><g><path d="M 151.734375 -231.351562 C 128.390625 -231.351562 107.128906 -224.683594 90.039062 -212.59375 L 90.039062 -305.96875 L 29.179688 -305.96875 L 29.179688 0.417969 L 73.78125 0.417969 L 81.285156 -18.757812 C 100.042969 -2.5 124.222656 6.667969 151.734375 6.667969 C 220.097656 6.667969 270.117188 -44.1875 270.117188 -112.132812 C 270.117188 -180.496094 220.097656 -231.351562 151.734375 -231.351562 Z M 146.730469 -50.855469 C 111.296875 -50.855469 85.453125 -77.535156 85.453125 -112.550781 C 85.453125 -147.566406 111.296875 -174.242188 146.730469 -174.242188 C 182.164062 -174.242188 208.007812 -147.566406 208.007812 -112.550781 C 208.007812 -77.535156 182.164062 -50.855469 146.730469 -50.855469 Z M 146.730469 -50.855469 "/></g></g></g></svg>