<svg width="500" height="500" viewBox="0 0 500 500" fill="none" xmlns="http://www.w3.org/2000/svg">
<rect width="500" height="500" fill="black"/>
<path d="M148.977 231.5V191.5H157.434V208.004H174.602V191.5H183.039V231.5H174.602V214.977H157.434V231.5H148.977ZM203.41 232.086C200.376 232.086 197.753 231.441 195.539 230.152C193.339 228.85 191.639 227.04 190.441 224.723C189.243 222.392 188.645 219.69 188.645 216.617C188.645 213.518 189.243 210.81 190.441 208.492C191.639 206.161 193.339 204.352 195.539 203.062C197.753 201.76 200.376 201.109 203.41 201.109C206.444 201.109 209.061 201.76 211.262 203.062C213.475 204.352 215.181 206.161 216.379 208.492C217.577 210.81 218.176 213.518 218.176 216.617C218.176 219.69 217.577 222.392 216.379 224.723C215.181 227.04 213.475 228.85 211.262 230.152C209.061 231.441 206.444 232.086 203.41 232.086ZM203.449 225.641C204.829 225.641 205.982 225.25 206.906 224.469C207.831 223.674 208.527 222.594 208.996 221.227C209.478 219.859 209.719 218.303 209.719 216.559C209.719 214.814 209.478 213.258 208.996 211.891C208.527 210.523 207.831 209.443 206.906 208.648C205.982 207.854 204.829 207.457 203.449 207.457C202.056 207.457 200.884 207.854 199.934 208.648C198.996 209.443 198.286 210.523 197.805 211.891C197.336 213.258 197.102 214.814 197.102 216.559C197.102 218.303 197.336 219.859 197.805 221.227C198.286 222.594 198.996 223.674 199.934 224.469C200.884 225.25 202.056 225.641 203.449 225.641ZM223.586 231.5V201.5H231.516V206.793H231.867C232.492 205.035 233.534 203.648 234.992 202.633C236.451 201.617 238.195 201.109 240.227 201.109C242.284 201.109 244.035 201.624 245.48 202.652C246.926 203.668 247.889 205.048 248.371 206.793H248.684C249.296 205.074 250.402 203.701 252.004 202.672C253.618 201.63 255.526 201.109 257.727 201.109C260.526 201.109 262.798 202.001 264.543 203.785C266.301 205.556 267.18 208.069 267.18 211.324V231.5H258.879V212.965C258.879 211.298 258.436 210.048 257.551 209.215C256.665 208.382 255.559 207.965 254.23 207.965C252.72 207.965 251.542 208.447 250.695 209.41C249.849 210.361 249.426 211.617 249.426 213.18V231.5H241.359V212.789C241.359 211.318 240.936 210.146 240.09 209.273C239.257 208.401 238.156 207.965 236.789 207.965C235.865 207.965 235.031 208.199 234.289 208.668C233.56 209.124 232.98 209.768 232.551 210.602C232.121 211.422 231.906 212.385 231.906 213.492V231.5H223.586ZM287.424 232.086C284.338 232.086 281.682 231.461 279.455 230.211C277.242 228.948 275.536 227.164 274.338 224.859C273.14 222.542 272.541 219.801 272.541 216.637C272.541 213.551 273.14 210.842 274.338 208.512C275.536 206.181 277.222 204.365 279.396 203.062C281.584 201.76 284.149 201.109 287.092 201.109C289.071 201.109 290.913 201.428 292.619 202.066C294.338 202.691 295.835 203.635 297.111 204.898C298.4 206.161 299.403 207.75 300.119 209.664C300.835 211.565 301.193 213.792 301.193 216.344V218.629H275.861V213.473H293.361C293.361 212.275 293.101 211.214 292.58 210.289C292.059 209.365 291.337 208.642 290.412 208.121C289.501 207.587 288.439 207.32 287.229 207.32C285.965 207.32 284.846 207.613 283.869 208.199C282.906 208.772 282.15 209.547 281.604 210.523C281.057 211.487 280.777 212.561 280.764 213.746V218.648C280.764 220.133 281.037 221.415 281.584 222.496C282.144 223.577 282.932 224.41 283.947 224.996C284.963 225.582 286.167 225.875 287.561 225.875C288.485 225.875 289.331 225.745 290.1 225.484C290.868 225.224 291.525 224.833 292.072 224.312C292.619 223.792 293.036 223.154 293.322 222.398L301.018 222.906C300.627 224.755 299.826 226.37 298.615 227.75C297.417 229.117 295.868 230.185 293.967 230.953C292.079 231.708 289.898 232.086 287.424 232.086Z" fill="#20863D"/>
<path d="M148.977 298.5V258.5H164.992C167.935 258.5 170.389 258.936 172.355 259.809C174.322 260.681 175.799 261.892 176.789 263.441C177.779 264.978 178.273 266.749 178.273 268.754C178.273 270.316 177.961 271.69 177.336 272.875C176.711 274.047 175.852 275.01 174.758 275.766C173.677 276.508 172.44 277.035 171.047 277.348V277.738C172.57 277.803 173.996 278.233 175.324 279.027C176.665 279.822 177.753 280.935 178.586 282.367C179.419 283.786 179.836 285.479 179.836 287.445C179.836 289.568 179.309 291.462 178.254 293.129C177.212 294.783 175.669 296.091 173.625 297.055C171.581 298.018 169.061 298.5 166.066 298.5H148.977ZM157.434 291.586H164.328C166.685 291.586 168.404 291.137 169.484 290.238C170.565 289.327 171.105 288.116 171.105 286.605C171.105 285.499 170.839 284.522 170.305 283.676C169.771 282.829 169.009 282.165 168.02 281.684C167.043 281.202 165.878 280.961 164.523 280.961H157.434V291.586ZM157.434 275.238H163.703C164.862 275.238 165.891 275.036 166.789 274.633C167.701 274.216 168.417 273.63 168.938 272.875C169.471 272.12 169.738 271.215 169.738 270.16C169.738 268.715 169.224 267.549 168.195 266.664C167.18 265.779 165.734 265.336 163.859 265.336H157.434V275.238ZM204.421 285.727V268.5H212.741V298.5H204.753V293.051H204.44C203.763 294.809 202.637 296.221 201.062 297.289C199.499 298.357 197.591 298.891 195.339 298.891C193.334 298.891 191.569 298.435 190.046 297.523C188.522 296.612 187.331 295.316 186.472 293.637C185.625 291.957 185.196 289.945 185.183 287.602V268.5H193.503V286.117C193.516 287.888 193.991 289.288 194.929 290.316C195.866 291.345 197.123 291.859 198.698 291.859C199.701 291.859 200.638 291.632 201.511 291.176C202.383 290.707 203.086 290.017 203.62 289.105C204.167 288.194 204.434 287.068 204.421 285.727ZM219.396 298.5V268.5H227.717V298.5H219.396ZM223.576 264.633C222.339 264.633 221.278 264.223 220.393 263.402C219.52 262.569 219.084 261.573 219.084 260.414C219.084 259.268 219.52 258.285 220.393 257.465C221.278 256.632 222.339 256.215 223.576 256.215C224.813 256.215 225.868 256.632 226.74 257.465C227.626 258.285 228.068 259.268 228.068 260.414C228.068 261.573 227.626 262.569 226.74 263.402C225.868 264.223 224.813 264.633 223.576 264.633ZM242.702 258.5V298.5H234.382V258.5H242.702ZM260.422 298.988C258.143 298.988 256.079 298.402 254.23 297.23C252.395 296.046 250.936 294.307 249.855 292.016C248.788 289.711 248.254 286.885 248.254 283.539C248.254 280.102 248.807 277.243 249.914 274.965C251.021 272.673 252.492 270.961 254.328 269.828C256.177 268.682 258.202 268.109 260.402 268.109C262.082 268.109 263.482 268.396 264.602 268.969C265.734 269.529 266.646 270.232 267.336 271.078C268.039 271.911 268.573 272.732 268.938 273.539H269.191V258.5H277.492V298.5H269.289V293.695H268.938C268.547 294.529 267.993 295.355 267.277 296.176C266.574 296.983 265.656 297.654 264.523 298.187C263.404 298.721 262.036 298.988 260.422 298.988ZM263.059 292.367C264.4 292.367 265.533 292.003 266.457 291.273C267.395 290.531 268.111 289.496 268.605 288.168C269.113 286.84 269.367 285.284 269.367 283.5C269.367 281.716 269.12 280.167 268.625 278.852C268.13 277.536 267.414 276.521 266.477 275.805C265.539 275.089 264.4 274.73 263.059 274.73C261.691 274.73 260.539 275.102 259.602 275.844C258.664 276.586 257.954 277.615 257.473 278.93C256.991 280.245 256.75 281.768 256.75 283.5C256.75 285.245 256.991 286.788 257.473 288.129C257.967 289.457 258.677 290.499 259.602 291.254C260.539 291.996 261.691 292.367 263.059 292.367ZM284.333 298.5V268.5H292.653V298.5H284.333ZM288.513 264.633C287.276 264.633 286.215 264.223 285.329 263.402C284.457 262.569 284.021 261.573 284.021 260.414C284.021 259.268 284.457 258.285 285.329 257.465C286.215 256.632 287.276 256.215 288.513 256.215C289.75 256.215 290.804 256.632 291.677 257.465C292.562 258.285 293.005 259.268 293.005 260.414C293.005 261.573 292.562 262.569 291.677 263.402C290.804 264.223 289.75 264.633 288.513 264.633ZM307.639 281.156V298.5H299.318V268.5H307.248V273.793H307.6C308.264 272.048 309.377 270.668 310.939 269.652C312.502 268.624 314.396 268.109 316.623 268.109C318.706 268.109 320.523 268.565 322.072 269.477C323.622 270.388 324.826 271.69 325.686 273.383C326.545 275.062 326.975 277.068 326.975 279.398V298.5H318.654V280.883C318.667 279.047 318.199 277.615 317.248 276.586C316.298 275.544 314.989 275.023 313.322 275.023C312.202 275.023 311.213 275.264 310.354 275.746C309.507 276.228 308.843 276.931 308.361 277.855C307.893 278.767 307.652 279.867 307.639 281.156ZM347.048 310.375C344.353 310.375 342.041 310.004 340.114 309.262C338.2 308.533 336.677 307.536 335.544 306.273C334.411 305.01 333.675 303.591 333.337 302.016L341.032 300.98C341.267 301.579 341.638 302.139 342.146 302.66C342.653 303.181 343.324 303.598 344.157 303.91C345.004 304.236 346.032 304.398 347.243 304.398C349.053 304.398 350.544 303.956 351.716 303.07C352.901 302.198 353.493 300.733 353.493 298.676V293.187H353.142C352.777 294.021 352.23 294.809 351.501 295.551C350.772 296.293 349.834 296.898 348.688 297.367C347.543 297.836 346.175 298.07 344.587 298.07C342.334 298.07 340.284 297.549 338.435 296.508C336.599 295.453 335.134 293.845 334.04 291.684C332.959 289.509 332.419 286.762 332.419 283.441C332.419 280.043 332.972 277.204 334.079 274.926C335.186 272.647 336.657 270.941 338.493 269.809C340.342 268.676 342.367 268.109 344.567 268.109C346.247 268.109 347.653 268.396 348.786 268.969C349.919 269.529 350.83 270.232 351.521 271.078C352.224 271.911 352.764 272.732 353.142 273.539H353.454V268.5H361.716V298.793C361.716 301.345 361.091 303.48 359.841 305.199C358.591 306.918 356.859 308.207 354.646 309.066C352.445 309.939 349.912 310.375 347.048 310.375ZM347.224 291.82C348.565 291.82 349.698 291.488 350.622 290.824C351.56 290.147 352.276 289.184 352.771 287.934C353.278 286.671 353.532 285.16 353.532 283.402C353.532 281.645 353.285 280.121 352.79 278.832C352.295 277.53 351.579 276.521 350.642 275.805C349.704 275.089 348.565 274.73 347.224 274.73C345.856 274.73 344.704 275.102 343.767 275.844C342.829 276.573 342.119 277.589 341.638 278.891C341.156 280.193 340.915 281.697 340.915 283.402C340.915 285.134 341.156 286.632 341.638 287.895C342.132 289.145 342.842 290.115 343.767 290.805C344.704 291.482 345.856 291.82 347.224 291.82ZM148.977 365.5V325.5H157.434V342.004H174.602V325.5H183.039V365.5H174.602V348.977H157.434V365.5H148.977ZM209.094 352.727V335.5H217.414V365.5H209.426V360.051H209.113C208.436 361.809 207.31 363.221 205.734 364.289C204.172 365.357 202.264 365.891 200.012 365.891C198.007 365.891 196.242 365.435 194.719 364.523C193.195 363.612 192.004 362.316 191.145 360.637C190.298 358.957 189.868 356.945 189.855 354.602V335.5H198.176V353.117C198.189 354.888 198.664 356.288 199.602 357.316C200.539 358.345 201.796 358.859 203.371 358.859C204.374 358.859 205.311 358.632 206.184 358.176C207.056 357.707 207.759 357.017 208.293 356.105C208.84 355.194 209.107 354.068 209.094 352.727ZM224.226 365.5V325.5H232.546V340.539H232.8C233.164 339.732 233.692 338.911 234.382 338.078C235.085 337.232 235.996 336.529 237.116 335.969C238.249 335.396 239.655 335.109 241.335 335.109C243.522 335.109 245.541 335.682 247.39 336.828C249.239 337.961 250.716 339.673 251.823 341.965C252.93 344.243 253.483 347.102 253.483 350.539C253.483 353.885 252.943 356.711 251.862 359.016C250.795 361.307 249.336 363.046 247.487 364.23C245.651 365.402 243.594 365.988 241.315 365.988C239.701 365.988 238.327 365.721 237.194 365.187C236.075 364.654 235.157 363.983 234.44 363.176C233.724 362.355 233.177 361.529 232.8 360.695H232.429V365.5H224.226ZM232.37 350.5C232.37 352.284 232.618 353.84 233.112 355.168C233.607 356.496 234.323 357.531 235.261 358.273C236.198 359.003 237.338 359.367 238.679 359.367C240.033 359.367 241.179 358.996 242.116 358.254C243.054 357.499 243.763 356.457 244.245 355.129C244.74 353.788 244.987 352.245 244.987 350.5C244.987 348.768 244.746 347.245 244.265 345.93C243.783 344.615 243.073 343.586 242.136 342.844C241.198 342.102 240.046 341.73 238.679 341.73C237.325 341.73 236.179 342.089 235.241 342.805C234.317 343.521 233.607 344.536 233.112 345.852C232.618 347.167 232.37 348.716 232.37 350.5Z" fill="white"/>
<path d="M365.5 442H126C109.431 442 96 428.569 96 412V188.926C96 180.97 99.1607 173.339 104.787 167.713L223.287 49.2132C235.003 37.4975 253.997 37.4975 265.713 49.2132L365.5 149" stroke="#1DB954" stroke-width="40" stroke-linecap="round"/>
</svg>
